<svg width="130" height="40" viewBox="0 0 130 40" fill="none" xmlns="http://www.w3.org/2000/svg">
<rect x="0.5" y="0.5" width="129" height="39" rx="5.5" fill="black"/>
<rect x="0.5" y="0.5" width="129" height="39" rx="5.5" stroke="#A6A6A6"/>
<path fill-rule="evenodd" clip-rule="evenodd" d="M25.7689 20.5804C25.7907 18.8839 26.6801 17.3169 28.1254 16.4284C27.2095 15.1202 25.7304 14.3206 24.1343 14.2707C22.455 14.0944 20.8271 15.2755 19.9714 15.2755C19.0991 15.2755 17.7816 14.2882 16.3629 14.3174C14.4962 14.3777 12.7981 15.4133 11.89 17.0452C9.95596 20.3937 11.3985 25.3147 13.2512 28.0213C14.1781 29.3467 15.2613 30.8271 16.6788 30.7746C18.0658 30.7171 18.5839 29.8901 20.2582 29.8901C21.917 29.8901 22.403 30.7746 23.8492 30.7412C25.3376 30.7171 26.2753 29.41 27.1697 28.0721C27.8357 27.1277 28.3481 26.084 28.6881 24.9796C26.9204 24.2319 25.7709 22.4998 25.7689 20.5804Z" fill="white"/>
<path fill-rule="evenodd" clip-rule="evenodd" d="M23.0372 12.4906C23.8488 11.5164 24.2486 10.2642 24.1518 9C22.9119 9.13022 21.7667 9.72278 20.9442 10.6596C20.132 11.5839 19.7206 12.7932 19.8005 14.021C21.0569 14.0339 22.2499 13.4699 23.0372 12.4906Z" fill="white"/>
<path d="M42.4741 14H41.1382L41.147 13.3101H42.4741C42.9312 13.3101 43.312 13.2148 43.6167 13.0244C43.9214 12.8311 44.1499 12.5615 44.3022 12.2158C44.4575 11.8672 44.5352 11.46 44.5352 10.9941V10.603C44.5352 10.2368 44.4912 9.91162 44.4033 9.62744C44.3154 9.34033 44.1865 9.09863 44.0166 8.90234C43.8467 8.70312 43.6387 8.55225 43.3926 8.44971C43.1494 8.34717 42.8696 8.2959 42.5532 8.2959H41.1118V7.60156H42.5532C42.9722 7.60156 43.3545 7.67188 43.7002 7.8125C44.0459 7.9502 44.3433 8.15088 44.5923 8.41455C44.8442 8.67529 45.0376 8.9917 45.1724 9.36377C45.3071 9.73291 45.3745 10.1489 45.3745 10.6118V10.9941C45.3745 11.457 45.3071 11.8745 45.1724 12.2466C45.0376 12.6157 44.8428 12.9307 44.5879 13.1914C44.3359 13.4521 44.0312 13.6528 43.6738 13.7935C43.3193 13.9312 42.9194 14 42.4741 14ZM41.5908 7.60156V14H40.7427V7.60156H41.5908ZM47.2886 7.60156V14H46.4404V7.60156H47.2886ZM51.9712 12.3828C51.9712 12.2334 51.9478 12.1016 51.9009 11.9873C51.857 11.8701 51.7779 11.7646 51.6636 11.6709C51.5523 11.5771 51.397 11.4878 51.1978 11.4028C51.0015 11.3179 50.7525 11.2314 50.4507 11.1436C50.1343 11.0498 49.8487 10.9458 49.5938 10.8315C49.3389 10.7144 49.1206 10.5811 48.939 10.4316C48.7574 10.2822 48.6182 10.1108 48.5215 9.91748C48.4248 9.72412 48.3765 9.50293 48.3765 9.25391C48.3765 9.00488 48.4278 8.7749 48.5303 8.56396C48.6329 8.35303 48.7793 8.16992 48.9698 8.01465C49.1631 7.85645 49.3931 7.7334 49.6597 7.64551C49.9263 7.55762 50.2237 7.51367 50.5518 7.51367C51.0323 7.51367 51.4395 7.60596 51.7735 7.79053C52.1104 7.97217 52.3667 8.21094 52.5425 8.50684C52.7183 8.7998 52.8062 9.11328 52.8062 9.44727H51.9624C51.9624 9.20703 51.9112 8.99463 51.8086 8.81006C51.7061 8.62256 51.5508 8.47607 51.3428 8.37061C51.1348 8.26221 50.8711 8.20801 50.5518 8.20801C50.25 8.20801 50.001 8.25342 49.8047 8.34424C49.6084 8.43506 49.462 8.55811 49.3653 8.71338C49.2715 8.86865 49.2246 9.0459 49.2246 9.24512C49.2246 9.37988 49.2525 9.50293 49.3081 9.61426C49.3667 9.72266 49.4561 9.82373 49.5762 9.91748C49.6993 10.0112 49.8545 10.0977 50.042 10.1768C50.2325 10.2559 50.4595 10.332 50.7232 10.4053C51.0865 10.5078 51.3999 10.6221 51.6636 10.748C51.9273 10.874 52.1441 11.0161 52.314 11.1743C52.4869 11.3296 52.6143 11.5068 52.6963 11.7061C52.7813 11.9023 52.8238 12.125 52.8238 12.374C52.8238 12.6348 52.771 12.8706 52.6656 13.0815C52.5601 13.2925 52.4092 13.4727 52.2129 13.6221C52.0166 13.7715 51.7808 13.8872 51.5054 13.9692C51.2329 14.0483 50.9283 14.0879 50.5913 14.0879C50.2954 14.0879 50.0039 14.0469 49.7168 13.9648C49.4327 13.8828 49.1734 13.7598 48.939 13.5957C48.7076 13.4316 48.5215 13.2295 48.3809 12.9893C48.2432 12.7461 48.1744 12.4648 48.1744 12.1455H49.0181C49.0181 12.3652 49.0606 12.5542 49.1455 12.7124C49.2305 12.8677 49.3462 12.9966 49.4927 13.0991C49.6421 13.2017 49.8106 13.2778 49.9981 13.3276C50.1885 13.3745 50.3863 13.3979 50.5913 13.3979C50.8872 13.3979 51.1377 13.3569 51.3428 13.2749C51.5479 13.1929 51.7032 13.0757 51.8086 12.9233C51.917 12.771 51.9712 12.5908 51.9712 12.3828ZM55.9947 11.4907H54.2852V10.8008H55.9947C56.3257 10.8008 56.5938 10.748 56.7989 10.6426C57.004 10.5371 57.1534 10.3906 57.2471 10.2031C57.3438 10.0156 57.3921 9.80176 57.3921 9.56152C57.3921 9.3418 57.3438 9.13525 57.2471 8.94189C57.1534 8.74854 57.004 8.59326 56.7989 8.47607C56.5938 8.35596 56.3257 8.2959 55.9947 8.2959H54.483V14H53.6348V7.60156H55.9947C56.4781 7.60156 56.8868 7.68506 57.2208 7.85205C57.5547 8.01904 57.8082 8.25049 57.981 8.54639C58.1539 8.83936 58.2403 9.1748 58.2403 9.55273C58.2403 9.96289 58.1539 10.313 57.981 10.603C57.8082 10.8931 57.5547 11.1143 57.2208 11.2666C56.8868 11.416 56.4781 11.4907 55.9947 11.4907ZM63.9688 10.5986V11.0029C63.9688 11.4834 63.9088 11.9141 63.7887 12.2949C63.6685 12.6758 63.4957 12.9995 63.2701 13.2661C63.0445 13.5327 62.7735 13.7363 62.4571 13.877C62.1436 14.0176 61.7921 14.0879 61.4024 14.0879C61.0245 14.0879 60.6773 14.0176 60.3609 13.877C60.0474 13.7363 59.775 13.5327 59.5435 13.2661C59.315 12.9995 59.1378 12.6758 59.0118 12.2949C58.8858 11.9141 58.8228 11.4834 58.8228 11.0029V10.5986C58.8228 10.1182 58.8844 9.68896 59.0074 9.31104C59.1334 8.93018 59.3106 8.60645 59.5391 8.33984C59.7677 8.07031 60.0387 7.86523 60.3521 7.72461C60.6685 7.58398 61.0157 7.51367 61.3936 7.51367C61.7833 7.51367 62.1348 7.58398 62.4483 7.72461C62.7647 7.86523 63.0357 8.07031 63.2613 8.33984C63.4898 8.60645 63.6641 8.93018 63.7843 9.31104C63.9073 9.68896 63.9688 10.1182 63.9688 10.5986ZM63.1295 11.0029V10.5898C63.1295 10.209 63.0899 9.87207 63.0108 9.5791C62.9346 9.28613 62.8219 9.04004 62.6724 8.84082C62.523 8.6416 62.3399 8.49072 62.1231 8.38818C61.9093 8.28564 61.6661 8.23438 61.3936 8.23438C61.13 8.23438 60.8912 8.28564 60.6773 8.38818C60.4664 8.49072 60.2847 8.6416 60.1324 8.84082C59.983 9.04004 59.8673 9.28613 59.7852 9.5791C59.7032 9.87207 59.6622 10.209 59.6622 10.5898V11.0029C59.6622 11.3867 59.7032 11.7266 59.7852 12.0225C59.8673 12.3154 59.9845 12.563 60.1368 12.7651C60.2921 12.9644 60.4752 13.1152 60.6861 13.2178C60.9 13.3203 61.1388 13.3716 61.4024 13.3716C61.6778 13.3716 61.9224 13.3203 62.1363 13.2178C62.3502 13.1152 62.5304 12.9644 62.6768 12.7651C62.8263 12.563 62.939 12.3154 63.0152 12.0225C63.0914 11.7266 63.1295 11.3867 63.1295 11.0029ZM69.8907 7.60156V14H69.0382L65.817 9.06494V14H64.9688V7.60156H65.817L69.0514 12.5498V7.60156H69.8907ZM72.0333 7.60156V14H71.1852V7.60156H72.0333ZM71.1588 7.12695L72.0113 5.83496H72.9913L71.8136 7.12695H71.1588ZM75.3712 13.0288L77.2565 7.60156H78.1749L75.8063 14H75.1515L75.3712 13.0288ZM73.609 7.60156L75.4767 13.0288L75.7096 14H75.0548L72.6906 7.60156H73.609ZM82.8312 13.3101V14H79.443V13.3101H82.8312ZM79.6144 7.60156V14H78.7663V7.60156H79.6144ZM82.383 10.3525V11.0425H79.443V10.3525H82.383ZM82.7873 7.60156V8.2959H79.443V7.60156H82.7873ZM87.4919 13.3101V14H84.2927V13.3101H87.4919ZM84.4596 7.60156V14H83.6115V7.60156H84.4596ZM95.0774 7.60156V14H94.2248L91.0036 9.06494V14H90.1555V7.60156H91.0036L94.238 12.5498V7.60156H95.0774ZM101.237 10.5986V11.0029C101.237 11.4834 101.177 11.9141 101.056 12.2949C100.936 12.6758 100.763 12.9995 100.538 13.2661C100.312 13.5327 100.041 13.7363 99.7248 13.877C99.4114 14.0176 99.0598 14.0879 98.6702 14.0879C98.2922 14.0879 97.9451 14.0176 97.6287 13.877C97.3152 13.7363 97.0427 13.5327 96.8113 13.2661C96.5828 12.9995 96.4055 12.6758 96.2795 12.2949C96.1536 11.9141 96.0906 11.4834 96.0906 11.0029V10.5986C96.0906 10.1182 96.1521 9.68896 96.2751 9.31104C96.4011 8.93018 96.5784 8.60645 96.8069 8.33984C97.0354 8.07031 97.3064 7.86523 97.6199 7.72461C97.9363 7.58398 98.2834 7.51367 98.6614 7.51367C99.051 7.51367 99.4026 7.58398 99.7161 7.72461C100.032 7.86523 100.303 8.07031 100.529 8.33984C100.758 8.60645 100.932 8.93018 101.052 9.31104C101.175 9.68896 101.237 10.1182 101.237 10.5986ZM100.397 11.0029V10.5898C100.397 10.209 100.358 9.87207 100.279 9.5791C100.202 9.28613 100.09 9.04004 99.9402 8.84082C99.7908 8.6416 99.6077 8.49072 99.3909 8.38818C99.177 8.28564 98.9338 8.23438 98.6614 8.23438C98.3977 8.23438 98.1589 8.28564 97.9451 8.38818C97.7341 8.49072 97.5525 8.6416 97.4001 8.84082C97.2507 9.04004 97.135 9.28613 97.053 9.5791C96.9709 9.87207 96.9299 10.209 96.9299 10.5898V11.0029C96.9299 11.3867 96.9709 11.7266 97.053 12.0225C97.135 12.3154 97.2522 12.563 97.4045 12.7651C97.5598 12.9644 97.7429 13.1152 97.9538 13.2178C98.1677 13.3203 98.4065 13.3716 98.6702 13.3716C98.9455 13.3716 99.1902 13.3203 99.404 13.2178C99.6179 13.1152 99.7981 12.9644 99.9446 12.7651C100.094 12.563 100.207 12.3154 100.283 12.0225C100.359 11.7266 100.397 11.3867 100.397 11.0029Z" fill="white"/>
<path d="M56.9199 21.9766C59.2177 21.9766 60.7324 23.793 60.7324 26.5987C60.7324 29.4122 59.2266 31.2198 56.9541 31.2198C55.7795 31.2812 54.6731 30.666 54.1055 29.6358H54.0625V34.1202H52.2041V22.0713H54.0029V23.5772H54.0371C54.6299 22.5534 55.7375 21.9385 56.9199 21.9766ZM66.8847 21.9766C69.1826 21.9766 70.6973 23.793 70.6973 26.5987C70.6973 29.4122 69.1914 31.2198 66.9189 31.2198C65.7443 31.2812 64.6379 30.666 64.0703 29.6358H64.0273V34.1202H62.1689V22.0713H63.9677V23.5772H64.0019C64.5947 22.5534 65.7023 21.9385 66.8847 21.9766ZM80.2266 18.5C82.8506 18.5 84.6494 19.9717 84.71 22.1143H82.834C82.7217 20.875 81.6972 20.127 80.2002 20.127C78.7031 20.127 77.6787 20.8838 77.6787 21.9854C77.6787 22.8633 78.333 23.3799 79.9336 23.7754L81.3017 24.1113C83.8496 24.7138 84.9082 25.7373 84.9082 27.5537C84.9082 29.8769 83.0576 31.332 80.1142 31.332C77.3603 31.332 75.501 29.9111 75.3808 27.665L77.2832 27.6651C77.4209 28.8965 78.6172 29.7051 80.2519 29.7051C81.8184 29.7051 82.9453 28.8965 82.9453 27.7861C82.9453 26.8223 82.2656 26.2451 80.6562 25.8496L79.0469 25.4619C76.7666 24.9111 75.708 23.8447 75.708 22.1143C75.708 19.9717 77.5752 18.5 80.2266 18.5ZM95.9317 21.96C98.5567 21.96 100.227 23.75 100.227 26.5987C100.227 29.4551 98.5655 31.2374 95.9317 31.2374C93.2988 31.2374 91.6377 29.4551 91.6377 26.5987C91.6377 23.7501 93.3155 21.96 95.9317 21.96ZM110.98 21.96C113.485 21.96 115.061 23.6807 115.061 26.4258V27.0625H108.666V27.1749C108.606 27.8489 108.839 28.5161 109.305 29.0067C109.771 29.4974 110.425 29.7642 111.102 29.7393C112.003 29.8238 112.854 29.3059 113.192 28.4659L114.957 28.4659C114.707 30.1094 113.106 31.2374 111.059 31.2374C108.425 31.2374 106.79 29.4727 106.79 26.6416C106.79 23.8018 108.434 21.96 110.98 21.96ZM88.9189 19.9288V22.0713H90.6406V23.543H88.9189V28.5342C88.9189 29.3096 89.2637 29.6709 90.0205 29.6709C90.2249 29.6674 90.429 29.653 90.6318 29.6279V31.0908C90.2916 31.1544 89.9457 31.1832 89.5996 31.1768C87.7666 31.1768 87.0518 30.4883 87.0518 28.7324V23.543H85.7354V22.0713H87.0517V19.9288H88.9189ZM46.5664 18.7071L51.0498 31.1251H49.0107L47.875 27.7686H43.1416L42.0049 31.1251H40L44.4834 18.7071H46.5664ZM105.752 21.9766C105.966 21.9759 106.18 21.9991 106.389 22.0459V23.7842C106.118 23.7016 105.836 23.6637 105.554 23.6719C105.007 23.6498 104.479 23.8675 104.106 24.268C103.734 24.6684 103.555 25.2116 103.617 25.7549V31.125H101.759V22.0713H103.531V23.6123H103.574C103.821 22.6203 104.73 21.9376 105.752 21.9766ZM95.9317 23.4913C94.4258 23.4913 93.5313 24.6534 93.5313 26.5987C93.5313 28.5606 94.4258 29.7051 95.9317 29.7051C97.4375 29.7051 98.333 28.5606 98.333 26.5987C98.333 24.6446 97.4375 23.4913 95.9317 23.4913ZM56.4297 23.5606C55.0098 23.5606 54.0547 24.7911 54.0547 26.5987C54.0547 28.4229 55.0098 29.6446 56.4297 29.6446C57.875 29.6446 58.8223 28.4483 58.8223 26.5987C58.8223 24.7657 57.875 23.5606 56.4297 23.5606ZM66.3945 23.5606C64.9746 23.5606 64.0195 24.7911 64.0195 26.5987C64.0195 28.4229 64.9746 29.6446 66.3945 29.6446C67.8398 29.6446 68.7871 28.4483 68.7871 26.5987C68.7871 24.7657 67.8398 23.5606 66.3945 23.5606ZM45.5342 20.7725H45.4825L43.6318 26.2198H47.3838L45.5342 20.7725ZM110.98 23.4659C110.369 23.4622 109.782 23.7029 109.349 24.1344C108.916 24.5659 108.673 25.1525 108.675 25.7637H113.201C113.235 25.1581 113.014 24.5658 112.593 24.1296C112.171 23.6934 111.587 23.4528 110.98 23.4659Z" fill="white"/>
</svg>
