<svg width="130" height="40" viewBox="0 0 130 40" fill="none" xmlns="http://www.w3.org/2000/svg">
<rect x="0.5" y="0.5" width="129" height="39" rx="5.5" fill="black"/>
<rect x="0.5" y="0.5" width="129" height="39" rx="5.5" stroke="#A6A6A6"/>
<path fill-rule="evenodd" clip-rule="evenodd" d="M9.435 7.54701C9.144 7.85501 8.973 8.33201 8.973 8.95101V31.049C8.973 31.668 9.144 32.145 9.435 32.453L9.509 32.525L21.888 20.146V19.854L9.509 7.47501L9.435 7.54701Z" fill="#00D7FE"/>
<mask id="mask0_1_74" style="mask-type:alpha" maskUnits="userSpaceOnUse" x="21" y="15" width="12" height="10">
<path d="M26.013 24.274L21.888 20.146V19.854L26.015 15.727L30.997 18.557C32.393 19.351 32.393 20.649 30.997 21.442L26.108 24.22L26.013 24.274Z" fill="white"/>
</mask>
<g mask="url(#mask0_1_74)">
<path fill-rule="evenodd" clip-rule="evenodd" d="M26.013 24.274L21.888 20.146V19.854L26.015 15.727L30.997 18.557C32.393 19.351 32.393 20.649 30.997 21.442L26.108 24.22L26.013 24.274Z" fill="url(#paint0_linear_1_74)"/>
</g>
<mask id="mask1_1_74" style="mask-type:alpha" maskUnits="userSpaceOnUse" x="9" y="20" width="18" height="13">
<path d="M26.108 24.22L21.888 20L9.435 32.453C9.896 32.94 10.656 33 11.512 32.514L26.108 24.22Z" fill="white"/>
</mask>
<g mask="url(#mask1_1_74)">
<path fill-rule="evenodd" clip-rule="evenodd" d="M26.108 24.22L21.888 20L9.435 32.453C9.896 32.94 10.656 33 11.512 32.514L26.108 24.22Z" fill="url(#paint1_linear_1_74)"/>
</g>
<mask id="mask2_1_74" style="mask-type:alpha" maskUnits="userSpaceOnUse" x="9" y="7" width="18" height="13">
<path d="M26.108 15.78L11.512 7.486C10.656 7 9.896 7.06 9.435 7.547L21.888 20L26.108 15.78Z" fill="white"/>
</mask>
<g mask="url(#mask2_1_74)">
<path fill-rule="evenodd" clip-rule="evenodd" d="M26.108 15.78L11.512 7.486C10.656 7 9.896 7.06 9.435 7.547L21.888 20L26.108 15.78Z" fill="url(#paint2_linear_1_74)"/>
</g>
<path fill-rule="evenodd" clip-rule="evenodd" d="M103.894 30.953H105.76V18.452H103.894V30.953ZM120.701 22.955L118.562 28.375H118.498L116.278 22.955H114.268L117.597 30.53L115.699 34.744H117.646L122.776 22.955H120.701ZM110.119 29.533C109.507 29.533 108.655 29.228 108.655 28.472C108.655 27.507 109.717 27.137 110.633 27.137C111.454 27.137 111.839 27.314 112.338 27.555C112.193 28.713 111.196 29.533 110.119 29.533ZM110.344 22.682C108.993 22.682 107.594 23.277 107.015 24.596L108.671 25.287C109.025 24.596 109.684 24.37 110.376 24.37C111.341 24.37 112.322 24.949 112.338 25.979V26.107C112 25.914 111.277 25.625 110.392 25.625C108.607 25.625 106.789 26.606 106.789 28.439C106.789 30.112 108.253 31.19 109.893 31.19C111.148 31.19 111.839 30.627 112.274 29.967H112.338V30.932H114.139V26.14C114.139 23.92 112.483 22.682 110.344 22.682ZM98.812 24.477H96.158V20.192H98.812C100.207 20.192 100.999 21.347 100.999 22.334C100.999 23.303 100.207 24.477 98.812 24.477ZM98.764 18.452H94.293V30.953H96.158V26.217H98.764C100.832 26.217 102.865 24.719 102.865 22.334C102.865 19.949 100.832 18.452 98.764 18.452ZM74.383 29.535C73.094 29.535 72.015 28.456 72.015 26.974C72.015 25.476 73.094 24.38 74.383 24.38C75.656 24.38 76.654 25.476 76.654 26.974C76.654 28.456 75.656 29.535 74.383 29.535ZM76.525 23.655H76.461C76.042 23.156 75.237 22.705 74.222 22.705C72.095 22.705 70.146 24.573 70.146 26.974C70.146 29.358 72.095 31.211 74.222 31.211C75.237 31.211 76.042 30.76 76.461 30.244H76.525V30.856C76.525 32.484 75.656 33.354 74.254 33.354C73.11 33.354 72.401 32.532 72.111 31.839L70.484 32.516C70.951 33.644 72.192 35.029 74.254 35.029C76.445 35.029 78.298 33.74 78.298 30.599V22.962H76.525V23.655ZM79.587 30.953H81.456V18.451H79.587V30.953ZM84.21 26.829C84.162 25.186 85.483 24.348 86.433 24.348C87.175 24.348 87.803 24.718 88.012 25.25L84.21 26.829ZM90.01 25.411C89.656 24.461 88.576 22.705 86.369 22.705C84.178 22.705 82.358 24.428 82.358 26.958C82.358 29.342 84.162 31.211 86.578 31.211C88.528 31.211 89.656 30.019 90.123 29.326L88.673 28.359C88.19 29.068 87.529 29.535 86.578 29.535C85.628 29.535 84.951 29.1 84.516 28.247L90.203 25.895L90.01 25.411ZM44.702 24.01V25.814H49.019C48.89 26.829 48.552 27.57 48.037 28.086C47.408 28.714 46.425 29.406 44.702 29.406C42.044 29.406 39.965 27.264 39.965 24.606C39.965 21.947 42.044 19.805 44.702 19.805C46.136 19.805 47.183 20.369 47.956 21.094L49.229 19.821C48.149 18.79 46.716 18 44.702 18C41.061 18 38 20.965 38 24.606C38 28.247 41.061 31.211 44.702 31.211C46.667 31.211 48.149 30.567 49.309 29.358C50.501 28.166 50.872 26.491 50.872 25.137C50.872 24.718 50.84 24.332 50.775 24.01H44.702ZM55.781 29.535C54.492 29.535 53.38 28.472 53.38 26.958C53.38 25.427 54.492 24.38 55.781 24.38C57.069 24.38 58.181 25.427 58.181 26.958C58.181 28.472 57.069 29.535 55.781 29.535ZM55.781 22.705C53.428 22.705 51.511 24.493 51.511 26.958C51.511 29.406 53.428 31.211 55.781 31.211C58.133 31.211 60.05 29.406 60.05 26.958C60.05 24.493 58.133 22.705 55.781 22.705ZM65.094 29.535C63.805 29.535 62.693 28.472 62.693 26.958C62.693 25.427 63.805 24.38 65.094 24.38C66.383 24.38 67.494 25.427 67.494 26.958C67.494 28.472 66.383 29.535 65.094 29.535ZM65.094 22.705C62.742 22.705 60.825 24.493 60.825 26.958C60.825 29.406 62.742 31.211 65.094 31.211C67.446 31.211 69.363 29.406 69.363 26.958C69.363 24.493 67.446 22.705 65.094 22.705Z" fill="#FFFFFE"/>
<path d="M40.4741 14H39.1382L39.147 13.3101H40.4741C40.9312 13.3101 41.312 13.2148 41.6167 13.0244C41.9214 12.8311 42.1499 12.5615 42.3022 12.2158C42.4575 11.8672 42.5352 11.46 42.5352 10.9941V10.603C42.5352 10.2368 42.4912 9.91162 42.4033 9.62744C42.3154 9.34033 42.1865 9.09863 42.0166 8.90234C41.8467 8.70312 41.6387 8.55225 41.3926 8.44971C41.1494 8.34717 40.8696 8.2959 40.5532 8.2959H39.1118V7.60156H40.5532C40.9722 7.60156 41.3545 7.67188 41.7002 7.8125C42.0459 7.9502 42.3433 8.15088 42.5923 8.41455C42.8442 8.67529 43.0376 8.9917 43.1724 9.36377C43.3071 9.73291 43.3745 10.1489 43.3745 10.6118V10.9941C43.3745 11.457 43.3071 11.8745 43.1724 12.2466C43.0376 12.6157 42.8428 12.9307 42.5879 13.1914C42.3359 13.4521 42.0312 13.6528 41.6738 13.7935C41.3193 13.9312 40.9194 14 40.4741 14ZM39.5908 7.60156V14H38.7427V7.60156H39.5908ZM45.2886 7.60156V14H44.4404V7.60156H45.2886ZM49.9712 12.3828C49.9712 12.2334 49.9478 12.1016 49.9009 11.9873C49.857 11.8701 49.7779 11.7646 49.6636 11.6709C49.5523 11.5771 49.397 11.4878 49.1978 11.4028C49.0015 11.3179 48.7525 11.2314 48.4507 11.1436C48.1343 11.0498 47.8487 10.9458 47.5938 10.8315C47.3389 10.7144 47.1206 10.5811 46.939 10.4316C46.7574 10.2822 46.6182 10.1108 46.5215 9.91748C46.4248 9.72412 46.3765 9.50293 46.3765 9.25391C46.3765 9.00488 46.4278 8.7749 46.5303 8.56396C46.6329 8.35303 46.7793 8.16992 46.9698 8.01465C47.1631 7.85645 47.3931 7.7334 47.6597 7.64551C47.9263 7.55762 48.2237 7.51367 48.5518 7.51367C49.0323 7.51367 49.4395 7.60596 49.7735 7.79053C50.1104 7.97217 50.3667 8.21094 50.5425 8.50684C50.7183 8.7998 50.8062 9.11328 50.8062 9.44727H49.9624C49.9624 9.20703 49.9112 8.99463 49.8086 8.81006C49.7061 8.62256 49.5508 8.47607 49.3428 8.37061C49.1348 8.26221 48.8711 8.20801 48.5518 8.20801C48.25 8.20801 48.001 8.25342 47.8047 8.34424C47.6084 8.43506 47.462 8.55811 47.3653 8.71338C47.2715 8.86865 47.2246 9.0459 47.2246 9.24512C47.2246 9.37988 47.2525 9.50293 47.3081 9.61426C47.3667 9.72266 47.4561 9.82373 47.5762 9.91748C47.6993 10.0112 47.8545 10.0977 48.042 10.1768C48.2325 10.2559 48.4595 10.332 48.7232 10.4053C49.0865 10.5078 49.3999 10.6221 49.6636 10.748C49.9273 10.874 50.1441 11.0161 50.314 11.1743C50.4869 11.3296 50.6143 11.5068 50.6963 11.7061C50.7813 11.9023 50.8238 12.125 50.8238 12.374C50.8238 12.6348 50.771 12.8706 50.6656 13.0815C50.5601 13.2925 50.4092 13.4727 50.2129 13.6221C50.0166 13.7715 49.7808 13.8872 49.5054 13.9692C49.2329 14.0483 48.9283 14.0879 48.5913 14.0879C48.2954 14.0879 48.0039 14.0469 47.7168 13.9648C47.4327 13.8828 47.1734 13.7598 46.939 13.5957C46.7076 13.4316 46.5215 13.2295 46.3809 12.9893C46.2432 12.7461 46.1744 12.4648 46.1744 12.1455H47.0181C47.0181 12.3652 47.0606 12.5542 47.1455 12.7124C47.2305 12.8677 47.3462 12.9966 47.4927 13.0991C47.6421 13.2017 47.8106 13.2778 47.9981 13.3276C48.1885 13.3745 48.3863 13.3979 48.5913 13.3979C48.8872 13.3979 49.1377 13.3569 49.3428 13.2749C49.5479 13.1929 49.7032 13.0757 49.8086 12.9233C49.917 12.771 49.9712 12.5908 49.9712 12.3828ZM53.9947 11.4907H52.2852V10.8008H53.9947C54.3257 10.8008 54.5938 10.748 54.7989 10.6426C55.004 10.5371 55.1534 10.3906 55.2471 10.2031C55.3438 10.0156 55.3921 9.80176 55.3921 9.56152C55.3921 9.3418 55.3438 9.13525 55.2471 8.94189C55.1534 8.74854 55.004 8.59326 54.7989 8.47607C54.5938 8.35596 54.3257 8.2959 53.9947 8.2959H52.483V14H51.6348V7.60156H53.9947C54.4781 7.60156 54.8868 7.68506 55.2208 7.85205C55.5547 8.01904 55.8082 8.25049 55.981 8.54639C56.1539 8.83936 56.2403 9.1748 56.2403 9.55273C56.2403 9.96289 56.1539 10.313 55.981 10.603C55.8082 10.8931 55.5547 11.1143 55.2208 11.2666C54.8868 11.416 54.4781 11.4907 53.9947 11.4907ZM61.9688 10.5986V11.0029C61.9688 11.4834 61.9088 11.9141 61.7887 12.2949C61.6685 12.6758 61.4957 12.9995 61.2701 13.2661C61.0445 13.5327 60.7735 13.7363 60.4571 13.877C60.1436 14.0176 59.7921 14.0879 59.4024 14.0879C59.0245 14.0879 58.6773 14.0176 58.3609 13.877C58.0474 13.7363 57.775 13.5327 57.5435 13.2661C57.315 12.9995 57.1378 12.6758 57.0118 12.2949C56.8858 11.9141 56.8228 11.4834 56.8228 11.0029V10.5986C56.8228 10.1182 56.8844 9.68896 57.0074 9.31104C57.1334 8.93018 57.3106 8.60645 57.5391 8.33984C57.7677 8.07031 58.0387 7.86523 58.3521 7.72461C58.6685 7.58398 59.0157 7.51367 59.3936 7.51367C59.7833 7.51367 60.1348 7.58398 60.4483 7.72461C60.7647 7.86523 61.0357 8.07031 61.2613 8.33984C61.4898 8.60645 61.6641 8.93018 61.7843 9.31104C61.9073 9.68896 61.9688 10.1182 61.9688 10.5986ZM61.1295 11.0029V10.5898C61.1295 10.209 61.0899 9.87207 61.0108 9.5791C60.9346 9.28613 60.8219 9.04004 60.6724 8.84082C60.523 8.6416 60.3399 8.49072 60.1231 8.38818C59.9093 8.28564 59.6661 8.23438 59.3936 8.23438C59.13 8.23438 58.8912 8.28564 58.6773 8.38818C58.4664 8.49072 58.2847 8.6416 58.1324 8.84082C57.983 9.04004 57.8673 9.28613 57.7852 9.5791C57.7032 9.87207 57.6622 10.209 57.6622 10.5898V11.0029C57.6622 11.3867 57.7032 11.7266 57.7852 12.0225C57.8673 12.3154 57.9845 12.563 58.1368 12.7651C58.2921 12.9644 58.4752 13.1152 58.6861 13.2178C58.9 13.3203 59.1388 13.3716 59.4024 13.3716C59.6778 13.3716 59.9224 13.3203 60.1363 13.2178C60.3502 13.1152 60.5304 12.9644 60.6768 12.7651C60.8263 12.563 60.939 12.3154 61.0152 12.0225C61.0914 11.7266 61.1295 11.3867 61.1295 11.0029ZM67.8907 7.60156V14H67.0382L63.817 9.06494V14H62.9688V7.60156H63.817L67.0514 12.5498V7.60156H67.8907ZM70.0333 7.60156V14H69.1852V7.60156H70.0333ZM69.1588 7.12695L70.0113 5.83496H70.9913L69.8136 7.12695H69.1588ZM73.3712 13.0288L75.2565 7.60156H76.1749L73.8063 14H73.1515L73.3712 13.0288ZM71.609 7.60156L73.4767 13.0288L73.7096 14H73.0548L70.6906 7.60156H71.609ZM80.8312 13.3101V14H77.443V13.3101H80.8312ZM77.6144 7.60156V14H76.7663V7.60156H77.6144ZM80.383 10.3525V11.0425H77.443V10.3525H80.383ZM80.7873 7.60156V8.2959H77.443V7.60156H80.7873ZM85.4919 13.3101V14H82.2927V13.3101H85.4919ZM82.4596 7.60156V14H81.6115V7.60156H82.4596ZM93.0774 7.60156V14H92.2248L89.0036 9.06494V14H88.1555V7.60156H89.0036L92.238 12.5498V7.60156H93.0774ZM99.2366 10.5986V11.0029C99.2366 11.4834 99.1765 11.9141 99.0564 12.2949C98.9363 12.6758 98.7634 12.9995 98.5378 13.2661C98.3122 13.5327 98.0412 13.7363 97.7248 13.877C97.4114 14.0176 97.0598 14.0879 96.6702 14.0879C96.2922 14.0879 95.9451 14.0176 95.6287 13.877C95.3152 13.7363 95.0427 13.5327 94.8113 13.2661C94.5828 12.9995 94.4055 12.6758 94.2795 12.2949C94.1536 11.9141 94.0906 11.4834 94.0906 11.0029V10.5986C94.0906 10.1182 94.1521 9.68896 94.2751 9.31104C94.4011 8.93018 94.5784 8.60645 94.8069 8.33984C95.0354 8.07031 95.3064 7.86523 95.6199 7.72461C95.9363 7.58398 96.2834 7.51367 96.6614 7.51367C97.051 7.51367 97.4026 7.58398 97.7161 7.72461C98.0325 7.86523 98.3035 8.07031 98.529 8.33984C98.7576 8.60645 98.9319 8.93018 99.052 9.31104C99.175 9.68896 99.2366 10.1182 99.2366 10.5986ZM98.3972 11.0029V10.5898C98.3972 10.209 98.3577 9.87207 98.2786 9.5791C98.2024 9.28613 98.0896 9.04004 97.9402 8.84082C97.7908 8.6416 97.6077 8.49072 97.3909 8.38818C97.177 8.28564 96.9338 8.23438 96.6614 8.23438C96.3977 8.23438 96.1589 8.28564 95.9451 8.38818C95.7341 8.49072 95.5525 8.6416 95.4001 8.84082C95.2507 9.04004 95.135 9.28613 95.053 9.5791C94.9709 9.87207 94.9299 10.209 94.9299 10.5898V11.0029C94.9299 11.3867 94.9709 11.7266 95.053 12.0225C95.135 12.3154 95.2522 12.563 95.4045 12.7651C95.5598 12.9644 95.7429 13.1152 95.9538 13.2178C96.1677 13.3203 96.4065 13.3716 96.6702 13.3716C96.9455 13.3716 97.1902 13.3203 97.404 13.2178C97.6179 13.1152 97.7981 12.9644 97.9446 12.7651C98.094 12.563 98.2068 12.3154 98.2829 12.0225C98.3591 11.7266 98.3972 11.3867 98.3972 11.0029Z" fill="white"/>
<defs>
<linearGradient id="paint0_linear_1_74" x1="30.0888" y1="20.0003" x2="21.888" y2="20.0003" gradientUnits="userSpaceOnUse">
<stop stop-color="#FFBC00"/>
<stop offset="1" stop-color="#FFDA03"/>
</linearGradient>
<linearGradient id="paint1_linear_1_74" x1="23.8146" y1="23.9708" x2="13.1111" y2="32.7933" gradientUnits="userSpaceOnUse">
<stop stop-color="#E22652"/>
<stop offset="1" stop-color="#FF3A44"/>
</linearGradient>
<linearGradient id="paint2_linear_1_74" x1="11.3207" y1="9.04617" x2="18.4569" y2="15.3211" gradientUnits="userSpaceOnUse">
<stop stop-color="#0ED574"/>
<stop offset="1" stop-color="#07F076"/>
</linearGradient>
</defs>
</svg>
